<?xml version="1.0" encoding="utf-8"?>
<!-- Generator: Adobe Illustrator 28.0.0, SVG Export Plug-In . SVG Version: 6.00 Build 0)  -->
<svg version="1.0" id="katman_1" xmlns="http://www.w3.org/2000/svg" xmlns:xlink="http://www.w3.org/1999/xlink" x="0px" y="0px"
	 viewBox="0 0 600 449.54" style="enable-background:new 0 0 600 449.54;" xml:space="preserve">
<style type="text/css">
	.st0{fill:#06131E;}
	.st1{fill:#F3F5F6;}
	.st2{fill:#FFFFFF;}
</style>
<path class="st0" d="M74.54,75.87L47.24,76c-0.27,0-0.49-0.21-0.49-0.48l-0.19-14.2c0-0.38,0.19-0.57,0.57-0.57
	c12.23-0.02,24.43-0.04,36.6-0.07c6.09-0.01,11.49-2.5,17-4.72c25.39-10.22,50.75-20.68,76.1-31.37l59.73-24.48
	c0.32-0.13,0.67-0.14,0.99-0.04c1.67,0.51,3.59,1.21,5.78,2.1c42.3,17.36,84.51,34.93,126.64,52.72c5.24,2.21,10.2,4.08,14.88,5.61
	c0.79,0.26,1.63,0.39,2.46,0.38l38.41-0.19c0.38,0,0.57,0.19,0.56,0.58l-0.17,14.19c0,0.18-0.15,0.32-0.33,0.32L74.54,75.87z
	 M239.64,51.91c0.34-6.27,1.47-12.42,3.38-18.43c4.35-13.64-11.16-18.72-18.11-8.82c-0.89,1.26-1.23,2.65-1.03,4.18l0.16,1.2
	c0.19,1.41,0.72,1.56,1.6,0.44c2.15-2.74,5.27-3.83,9.34-3.28c7.23,0.99,4.72,9.26,3.85,14.9c-0.27,1.73-0.29,5.11-0.07,10.13
	c0.01,0.11,0.06,0.15,0.17,0.14l0.29-0.03C239.45,52.32,239.63,52.13,239.64,51.91z M278.51,45.83c-0.65-0.71-1.35-1.36-2.1-1.96
	c-2.94-2.35-3.45-6.01-5.68-8.73c-4.29-5.26-12.18-6.65-18.04-3.47c-6.17,3.35-8.83,11.89-9.55,18.62c-0.1,0.95-0.06,1.81,0.11,2.58
	c0.13,0.61,0.26,0.61,0.41,0.01c1.01-4.23,2.75-8.14,5.22-11.71c4.76-6.89,13.66-10,18.94-1.57c0.82,1.31,0.51,2.25-0.92,2.82
	l-1.39,0.56c-0.99,0.4-0.95,0.64,0.11,0.72c6.19,0.46,11.23,4.4,12.95,9.95c0.24,0.78,1.34,0.78,1.6,0.01
	c3.43-10.28,21.92-2.08,14.28,4.26c-0.11,0.09-0.13,0.2-0.04,0.32v0.01c0.09,0.12,0.19,0.14,0.32,0.06c2.49-1.61,5.16-3.77,8.02-4.2
	c4.87-0.73,10.77,1.23,15.04,3.48c1.19,0.63,1.08,1.62,2.64,1.9c6.65,1.21,13.28,2.42,19.91,3.62c0.3,0.05,0.48-0.07,0.54-0.36
	l0.06-0.26c0.02-0.09-0.02-0.15-0.11-0.18l-19.07-4.62c-0.56-0.14-1.05-0.5-1.35-1c-3.77-6.25-13.17-6.95-19.31-4.55
	c-0.95,0.37-1.54,0.05-1.76-0.94c-1.67-7.48-8.92-10.66-15.66-7.92c-1.4,0.57-2.86,1.83-4.33,2.68
	C279.04,46.14,278.76,46.1,278.51,45.83z M166.93,52.56l-0.9-0.71c-0.28-0.22-0.6-0.35-0.95-0.4c-4.72-0.53-10.72,0.89-13.74,4.96
	c-0.66,0.89,0.3,2.08,1.31,1.62c4.81-2.19,9.88-3.34,15.2-3.44c0.35-0.01,0.65-0.12,0.92-0.35c1.8-1.56,3.15-3.72,5.2-4.6
	c3.16-1.37,11.24-1.44,11.38,3.78c0.05,1.8,0.45,1.91,1.2,0.34c2.68-5.63,9.71-10.26,16.46-8.61c0.33,0.08,0.54-0.04,0.64-0.35
	c0.09-0.29,0-0.52-0.27-0.68c-1.22-0.73-2.21-1.43-2.96-2.12c-0.63-0.57-0.71-1.53-0.2-2.2c7.44-9.85,18.02-3.71,21.06,5.77
	c0.02,0.08,0.07,0.11,0.16,0.08l0,0c0.08-0.03,0.11-0.08,0.08-0.16c-1.27-3.75-1.99-8.79-4.7-11.45
	c-4.83-4.74-12.85-4.02-17.95,0.05c-3.19,2.54-5.81,7.78-8.71,11.47c-0.22,0.28-0.63,0.35-0.94,0.16
	c-8.37-5.19-18.31-3.4-21.54,6.62C167.54,52.77,167.29,52.85,166.93,52.56z M196.47,57.35c5.05-0.46,8.41,1.34,12.26,4.61
	c0.1,0.09,0.2,0.08,0.29-0.02l0.21-0.2c0.12-0.12,0.12-0.24,0.01-0.37c-3.52-4.14-7.87-8.1-12.91-4.4
	C195.93,57.26,195.98,57.39,196.47,57.35z M259.74,61.99c3.43-2.86,7.04-4.13,11.32-5c0.67-0.14,0.68-0.29,0.01-0.45
	c-4.24-1-8.57,1.57-11.6,4.89c-0.11,0.13-0.11,0.25,0,0.37l0.18,0.19C259.68,62.02,259.71,62.02,259.74,61.99z M149.72,56.9
	l-12.33,3.03c-0.06,0.02-0.09,0.08-0.08,0.14l0.01,0.03c0.15,0.61,3.02,0.43,6.42-0.41l0.25-0.06c3.39-0.83,6.02-2.01,5.87-2.62
	v-0.03C149.84,56.93,149.78,56.89,149.72,56.9z"/>
<path class="st1" d="M239.64,51.91c-0.01,0.22-0.19,0.41-0.42,0.43l-0.29,0.03c-0.11,0.01-0.16-0.03-0.17-0.14
	c-0.22-5.02-0.2-8.4,0.07-10.13c0.87-5.64,3.38-13.91-3.85-14.9c-4.07-0.55-7.19,0.54-9.34,3.28c-0.88,1.12-1.41,0.97-1.6-0.44
	l-0.16-1.2c-0.2-1.53,0.14-2.92,1.03-4.18c6.95-9.9,22.46-4.82,18.11,8.82C241.11,39.49,239.98,45.64,239.64,51.91z"/>
<path class="st1" d="M279.35,45.96c1.47-0.85,2.93-2.11,4.33-2.68c6.74-2.74,13.99,0.44,15.66,7.92c0.22,0.99,0.81,1.31,1.76,0.94
	c6.14-2.4,15.54-1.7,19.31,4.55c0.3,0.5,0.79,0.86,1.35,1l19.07,4.62c0.09,0.03,0.13,0.09,0.11,0.18l-0.06,0.26
	c-0.06,0.29-0.24,0.41-0.54,0.36c-6.63-1.2-13.26-2.41-19.91-3.62c-1.56-0.28-1.45-1.27-2.64-1.9c-4.27-2.25-10.17-4.21-15.04-3.48
	c-2.86,0.43-5.53,2.59-8.02,4.2c-0.13,0.08-0.23,0.06-0.32-0.06v-0.01c-0.09-0.12-0.07-0.23,0.04-0.32
	c7.64-6.34-10.85-14.54-14.28-4.26c-0.26,0.77-1.36,0.77-1.6-0.01c-1.72-5.55-6.76-9.49-12.95-9.95c-1.06-0.08-1.1-0.32-0.11-0.72
	l1.39-0.56c1.43-0.57,1.74-1.51,0.92-2.82c-5.28-8.43-14.18-5.32-18.94,1.57c-2.47,3.57-4.21,7.48-5.22,11.71
	c-0.15,0.6-0.28,0.6-0.41-0.01c-0.17-0.77-0.21-1.63-0.11-2.58c0.72-6.73,3.38-15.27,9.55-18.62c5.86-3.18,13.75-1.79,18.04,3.47
	c2.23,2.72,2.74,6.38,5.68,8.73c0.75,0.6,1.45,1.25,2.1,1.96C278.76,46.1,279.04,46.14,279.35,45.96z"/>
<path class="st1" d="M167.68,52.34c3.23-10.02,13.17-11.81,21.54-6.62c0.31,0.19,0.72,0.12,0.94-0.16c2.9-3.69,5.52-8.93,8.71-11.47
	c5.1-4.07,13.12-4.79,17.95-0.05c2.71,2.66,3.43,7.7,4.7,11.45c0.03,0.08,0,0.13-0.08,0.16l0,0c-0.09,0.03-0.14,0-0.16-0.08
	c-3.04-9.48-13.62-15.62-21.06-5.77c-0.51,0.67-0.43,1.63,0.2,2.2c0.75,0.69,1.74,1.39,2.96,2.12c0.27,0.16,0.36,0.39,0.27,0.68
	c-0.1,0.31-0.31,0.43-0.64,0.35c-6.75-1.65-13.78,2.98-16.46,8.61c-0.75,1.57-1.15,1.46-1.2-0.34c-0.14-5.22-8.22-5.15-11.38-3.78
	c-2.05,0.88-3.4,3.04-5.2,4.6c-0.27,0.23-0.57,0.34-0.92,0.35c-5.32,0.1-10.39,1.25-15.2,3.44c-1.01,0.46-1.97-0.73-1.31-1.62
	c3.02-4.07,9.02-5.49,13.74-4.96c0.35,0.05,0.67,0.18,0.95,0.4l0.9,0.71C167.29,52.85,167.54,52.77,167.68,52.34z"/>
<path class="st2" d="M208.73,61.96c-3.85-3.27-7.21-5.07-12.26-4.61c-0.49,0.04-0.54-0.09-0.14-0.38c5.04-3.7,9.39,0.26,12.91,4.4
	c0.11,0.13,0.11,0.25-0.01,0.37l-0.21,0.2C208.93,62.04,208.83,62.05,208.73,61.96z"/>
<path class="st2" d="M271.06,56.99c-4.28,0.87-7.89,2.14-11.32,5c-0.03,0.03-0.06,0.03-0.09,0l-0.18-0.19
	c-0.11-0.12-0.11-0.24,0-0.37c3.03-3.32,7.36-5.89,11.6-4.89C271.74,56.7,271.73,56.85,271.06,56.99z"/>
<path class="st2" d="M149.72,56.9c0.06-0.01,0.12,0.03,0.14,0.08v0.03c0.15,0.61-2.48,1.79-5.87,2.62l-0.25,0.06
	c-3.4,0.84-6.27,1.02-6.42,0.41l-0.01-0.03c-0.01-0.06,0.02-0.12,0.08-0.14L149.72,56.9z"/>
<path class="st0" d="M100.53,102.13c-22.14,9.94-25.42,41.28,0.04,49.91c5.02,1.71,10.44,1.4,16.27-0.93
	c9.17-3.67,13.98-14.13,8.99-23.15c-2.12-3.84-5.28-7.94-9.17-9.78c-7.75-3.64-18.19,2.74-16.59,11.85
	c2.2,12.51,18.31,11.79,22.47,1.33c0.1-0.25,0.4-0.36,0.64-0.23c0.25,0.14,0.4,0.36,0.46,0.67c1.8,8.77-4.59,14.82-12.63,16.32
	c-8.46,1.59-16.35-2.43-20.37-9.81c-7.99-14.65,3.01-30.82,18.6-32.18c10.39-0.9,19.76,4.03,25.89,12.27
	c13.94,18.71,3.02,42.98-17.95,49.43c-33.89,10.4-61.47-23.46-50.56-55.25c4.97-14.5,20.06-28.93,36.36-27.24
	c6.59,0.68,11.42,1.02,14.51,1.02c79.59-0.09,159.17-0.06,238.75,0.08c3.22,0.01,8.23-0.31,15.02-0.94
	c8.4-0.78,15.89,1.4,22.48,6.53c18.71,14.57,22.7,41.16,8.59,60.57c-15.05,20.69-45.51,23.56-62.17,3.03
	c-17.76-21.9,1.37-53.05,28.07-49.37c3.42,0.47,6.61,1.81,9.57,4.03c13.95,10.46,12.27,31.96-5.32,37.43
	c-11.5,3.58-22.72-4.28-21-16.84c0.06-0.39,0.19-0.42,0.38-0.08c2.22,3.79,5.33,7.38,9.71,8.39c8.34,1.93,16.27-6.1,12.69-14.67
	c-3.31-7.94-13.39-10.06-19.66-4.37c-17.56,15.96-1.21,37.46,18.89,32.13c11.74-3.12,20.19-14.31,18.94-26.5
	c-1.23-11.99-10.79-22.51-22.18-25.52c-4.46-1.17-10.03-1.37-15.47-1.38c-78.85-0.13-157.69-0.12-236.54,0.03
	C112.2,98.93,105.92,99.71,100.53,102.13z"/>
<path class="st0" d="M323.51,143.18c-0.03-0.17-0.23-0.41-0.61-0.72c-0.22-0.19-0.49-0.31-0.81-0.37c-2.26-0.41-4.48-0.83-6.81-0.87
	c-13.36-0.27-26.72-0.34-40.09-0.21c-9.13,0.09-19.18-0.32-28.79-0.25c-28.97,0.21-57.95,0-86.91,0.32
	c-2.06,0.02-3.49,0.21-4.28,0.56c-3.33,1.48-3.19,2.52,0.4,3.13c3.77,0.64,5.86,6.14,5.86,9.27c-0.05,67.67-0.1,135.33-0.15,203
	c0,3.51,0.21,7.77-2.38,10.43c-3.45,3.54-8.03,0.78-8.42-3.68c-0.45-5.18-0.06-12.54-0.06-16.67c0.06-59.38,0.24-118.75-0.31-178.13
	c-0.01-0.71-0.33-0.92-0.98-0.65l-0.32,0.14c-0.52,0.22-0.82,0.61-0.91,1.17c-0.63,4.27-0.94,7.82-0.94,10.64
	c-0.05,61.75-0.08,123.5-0.11,185.25c0,3.14-0.69,9.41-4.65,9.51c-4.68,0.13-9.36,0.27-14.05,0.44c-0.4,0.01-0.6-0.18-0.6-0.58
	l-0.03-194.21c0-0.82-0.4-1.31-1.2-1.47c-5.57-1.09-11.63-0.98-16.97-1.83c-2.02-0.32-2.01-0.55,0.03-0.68
	c25.54-1.68,46.68-24.58,38.65-50.78c-2.6-8.49-9.63-18.08-17.44-22.42c-0.55-0.31-0.51-0.43,0.12-0.38
	c12.05,1.04,24.39,0.71,36.49,0.76c58.59,0.25,116.98,0.17,175.17-0.24c1.31-0.01,1.39,0.31,0.24,0.94
	c-0.62,0.35-1.52,0.5-2.19,1.04c-7.09,5.72-11.34,12.87-14.36,21.36c-0.12,0.33-0.43,0.55-0.78,0.55
	c-51.3-0.18-102.66-0.23-154.08-0.14c-5.73,0.01-10.39,0.23-13.97,0.65c-0.84,0.1-1.25,0.57-1.22,1.42l0.02,0.75
	c0.03,0.85,0.46,1.29,1.31,1.32c6.03,0.25,12.49,0.37,19.36,0.36c49.3-0.04,98.62,0.33,147.91-0.07c0.33,0,0.6,0.28,0.57,0.61
	c-0.82,9.58,0,14.07,5.48,23.73c7.32,12.9,18.22,17.75,32.21,20.46c2.1,0.41,2.08,0.65-0.05,0.72c-7.01,0.24-14.56-0.43-22.19,0.18
	c-0.39,0.04-0.7,0.33-0.75,0.72c-0.39,2.99-0.58,6-0.57,9.03c0.1,62.52,0.19,125.02-0.18,187.54c-0.01,0.3-0.25,0.54-0.54,0.53
	c-3.51-0.09-7.06-0.1-10.65-0.04c-4.66,0.09-6.25-6.97-6.26-10.53c-0.13-63.91-0.22-127.81-0.25-191.72c0-3.62-0.3-7.52-0.42-11.17
	c-0.02-0.65-0.49-1.19-1.13-1.31l-0.63-0.12c-0.69-0.13-1.05,0.16-1.07,0.86c-0.03,1.21-0.05,2.62-0.06,4.21
	c-0.2,58.25-0.28,116.5-0.25,174.75c0,7.39-0.06,14.79-0.19,22.18c-0.16,9.35-10.15,8.18-10.78-0.09c-0.24-3.1-0.36-6.21-0.36-9.34
	c-0.01-66,0.03-132,0.12-198c0.01-11.03,7.63-9.97,15.7-10.49C323.27,144.5,323.64,144.04,323.51,143.18z"/>
<path class="st0" d="M262.97,359.79c-0.03,14.53-22.29,17.5-22.26,0.75c0.09-67.75,0.03-135.5-0.18-203.25
	c-0.01-5.44,1.03-12.26,6.65-14.31c2.15-0.79,4.45-0.79,6.92,0c5.5,1.76,8.73,7.8,8.75,13.31
	C263.06,224.12,263.1,291.96,262.97,359.79z"/>
<path class="st0" d="M225.62,361.26c0,5.78-4.68,10.46-10.46,10.46h-0.26c-5.78,0-10.46-4.68-10.46-10.46V153.62
	c0-5.78,4.68-10.46,10.46-10.46h0.26c5.78,0,10.46,4.68,10.46,10.46V361.26z"/>
<path class="st0" d="M296,360.54c0,8.55-10.31,13.33-16.63,7.84c-2.13-1.85-3.2-4.21-3.21-7.09c-0.11-67.42-0.16-134.84-0.15-202.26
	c0-3.26,0.28-5.55,0.85-6.86c2.52-5.83,10.24-5.6,14.86-2.1c2.86,2.17,4.29,5.11,4.29,8.82C296.03,226.1,296.03,293.32,296,360.54z"
	/>
<path class="st0" d="M180.59,370.29c-6.85,0.57-9.19-5.84-9.18-12c0.19-65.24,0.22-130.48,0.09-195.72c-0.01-4,0.4-6.79,1.23-8.36
	c3.7-7.02,16.48-7.19,17.48,2.08c0.11,1.01,0.16,3.26,0.16,6.75c0.01,65.5-0.02,131-0.1,196.5
	C190.27,365.58,186.52,369.8,180.59,370.29z"/>
<path class="st0" d="M453.13,192.24c-5.81-4.33-3.29-13.2,2.78-16.05c7.01-3.29,15.72,0.7,16.71,8.85c0.34,2.82-0.56,4.94-2.7,6.35
	c-0.56,0.37-0.88,1.01-0.84,1.68l0.48,7.85c0.05,0.81-0.54,1.52-1.34,1.62c-3.99,0.52-8.15,0.67-12.48,0.45
	c-1.68-0.09-2.5-0.9-2.46-2.45c0.06-2.21,0.25-4.4,0.56-6.59C453.94,193.29,453.67,192.63,453.13,192.24z"/>
<path class="st0" d="M534.15,239.56c-13.01,0.14-22.98-5.03-34.5-9.4c-4.08-1.54-17.91-4.95-20.66-0.34
	c-0.73,1.22-1.97,3.2-3.73,5.95c-4.39,6.87-12.24,7.63-19.51,6.47c-7.77-1.25-9.67-7.74-13.02-13.81c-0.17-0.31-0.48-0.51-0.83-0.55
	c-11.7-1.3-21.18,3.36-31.65,7.64c-7.13,2.92-14.48,4.36-22.07,4.32c-0.34-0.01-0.6,0.3-0.54,0.64c0.54,2.9,1.21,5.74,2.02,8.53
	c8.27,28.45,16.61,56.88,25,85.29c1.85,6.23,2.93,11.73,6.05,15.4c0.71,0.84,0.73,2.07,0.04,2.93
	c-14.33,17.93-55.31,19.41-69.97,1.4c-2.79-3.42,0.54-4.47,1.4-7.21c10.87-34.8,21.46-70.51,31.76-107.12
	c0.17-0.62-0.06-0.93-0.71-0.92c-0.96,0.02-1.74-0.01-2.69-0.33c-8.84-3.05-13.89-9.29-15.14-18.72c-0.19-1.45,0.44-2.17,1.9-2.18
	l6.93-0.02c0.72-0.01,1.36,0.49,1.52,1.2c3.41,14.68,21.09,12.25,31.25,8.39c12.68-4.82,21.31-10.31,35.16-8.73
	c0.37,0.05,0.72-0.19,0.81-0.56c1.75-7.29,6.44-11.28,14.05-11.99c10.16-0.94,20.24,0.46,23.29,11.94c0.08,0.29,0.36,0.48,0.66,0.45
	c9.28-1.14,16.19,0.34,25.31,4.26c9.83,4.22,20.24,8.91,29.94,7.07c6.96-1.32,9.01-5.31,11.25-11.34c0.17-0.45,0.49-0.67,0.96-0.68
	l6.94-0.16c1.05-0.03,1.88,0.91,1.72,1.95c-1.47,9.53-8.38,18.29-18.26,19.57c-0.41,0.05-0.68,0.46-0.56,0.85
	c5.3,18.58,11.18,36.99,16.7,55.5c4.92,16.49,10.09,32.89,15.51,49.22c0.71,2.11,1.57,4.03,2.58,5.78c0.32,0.56,0.34,1.25,0.05,1.83
	c-2.38,4.72-9.83,8.92-14.64,10.67c-14.18,5.15-28.37,5.13-42.57-0.06c-5.5-2.01-11.71-5.86-14.12-11.45
	c-0.21-0.48-0.15-0.92,0.17-1.33c1.1-1.38,1.83-2.55,2.37-4.32c7.44-24.43,16.5-54.95,27.18-91.57c1.46-5,2.52-9.62,3.18-13.85
	C534.74,239.76,534.56,239.55,534.15,239.56z M362.88,332.49c-1.39,4.58-2.72,9.16-3.99,13.74c-0.02,0.05,0,0.07,0.06,0.07
	l52.56,0.03c0.32,0,0.43-0.15,0.34-0.46l-26.4-89.75c-0.08-0.28-0.48-0.25-0.52,0.03c-0.15,1.17-0.43,2.46-0.83,3.87
	C377.25,284.24,370.18,308.4,362.88,332.49z M536.75,255.85c-8.32,30.28-17.45,60.33-26.34,90.45c-0.02,0.07,0.04,0.14,0.11,0.14
	c17.77-0.29,35.53-0.29,53.3-0.02c0.41,0.01,0.55-0.18,0.43-0.57l-27.32-90.01C536.9,255.75,536.78,255.76,536.75,255.85z"/>
<path class="st0" d="M448.32,257.15c-0.8,0-1.45-0.65-1.45-1.45v-0.83c0-5.25,3.11-9.5,6.95-9.5h15.04c3.84,0,6.95,4.25,6.95,9.5
	v0.83c0,0.8-0.65,1.45-1.45,1.45H448.32z"/>
<path class="st2" d="M362.88,332.49c7.3-24.09,14.37-48.25,21.22-72.47c0.4-1.41,0.68-2.7,0.83-3.87c0.04-0.28,0.44-0.31,0.52-0.03
	l26.4,89.75c0.09,0.31-0.02,0.46-0.34,0.46l-52.56-0.03c-0.06,0-0.08-0.02-0.06-0.07C360.16,341.65,361.49,337.07,362.88,332.49z"/>
<path class="st2" d="M510.41,346.3c8.89-30.12,18.02-60.17,26.34-90.45c0.03-0.09,0.15-0.1,0.18-0.01l27.32,90.01
	c0.12,0.39-0.02,0.58-0.43,0.57c-17.77-0.27-35.53-0.27-53.3,0.02C510.45,346.44,510.39,346.37,510.41,346.3z"/>
<path class="st0" d="M469.45,267.06c-0.35,0.15-0.54,0.52-0.48,0.9l2.11,11.7c0.06,0.33-0.22,0.62-0.55,0.59
	c-6.05-0.65-12.11-0.67-18.18-0.06c-0.31,0.03-0.56-0.24-0.5-0.55l1.88-10.36c0.13-0.77-0.14-1.34-0.83-1.71
	c-2.19-1.17-4.67-3.56-3.69-6.44c0.2-0.6,0.76-1,1.39-1l21.22-0.07c0.56,0,1.07,0.29,1.36,0.76
	C475.33,264.33,472.08,265.9,469.45,267.06z"/>
<path class="st0" d="M449.38,291.71c-2.99-1.07-4.28-3.27-3.87-6.59c0.13-1.08,1.05-1.89,2.13-1.89l28.06-0.01
	c0.57,0,1.07,0.37,1.26,0.91c0.73,2.18,0.43,4.17-0.88,5.97c-0.24,0.32-0.56,0.5-0.96,0.54l-2.07,0.21
	c-0.44,0.04-0.76,0.44-0.71,0.88l2.73,21.81c0.08,0.63-0.2,0.95-0.84,0.96l-25.21,0.37c-0.59,0.01-1.06-0.49-1.01-1.08
	c0.51-5.92,1.14-11.59,1.91-17.01c0.11-0.79,0.12-2.23,0.01-4.32C449.92,292.09,449.73,291.84,449.38,291.71z"/>
<path class="st0" d="M445.79,327.19l-4.07-2.34c-0.26-0.16-0.47-0.4-0.57-0.69c-0.62-1.8-1.36-6.52,1.83-6.72
	c2.67-0.17,5.34-0.22,8.01-0.16c9.39,0.22,18.98,0.25,28.77,0.09c1.02-0.02,1.9,0.69,2.12,1.68c0.89,4.1-0.59,6.63-4.43,7.59
	c-0.3,0.07-0.53,0.32-0.59,0.63c-0.57,2.89,2.36,6.72,3.67,9.25c0.38,0.75-0.16,1.64-1,1.64l-36.37,0.07c-0.8,0-1.3-0.86-0.9-1.56
	c1.58-2.79,3.97-5.38,3.99-8.7C446.25,327.65,446.07,327.35,445.79,327.19z"/>
<path class="st0" d="M484.04,406.33c3.56,0.3,7.13,0.48,10.7,0.53c4.45,0.07,8.9,0.4,10.41,5.04c0.93,2.87,0.78,5.65-0.44,8.36
	c-1.07,2.4-4.8,1.93-6.97,1.92c-25.5-0.14-51-0.13-76.5,0.04c-7.59,0.04-6.3-14.98,3.41-15.2c3.29-0.07,6.59-0.2,9.9-0.39
	c0.32-0.02,0.49-0.39,0.29-0.64c-1.63-2.07-2.93-4.51-3.1-7.16c-0.53-8.08,7.34-10.36,14.24-10.47c0.28,0,0.46-0.3,0.33-0.55
	c-2.89-5.44-2.3-10.43,1.78-14.97c0.52-0.59,0.54-1.47,0.04-2.07c-6.26-7.56-15.96-16.43-15.6-26.6c0.11-2.99,4.66-2.66,6.71-2.72
	c13.83-0.38,27.67-0.5,41.5-0.37c2.27,0.03,9.23-0.67,9.01,3.97c-0.38,8.26-6.33,16.46-12.25,21.77c-1.57,1.41-2.65,2.82-3.87,4.35
	c-0.23,0.29-0.22,0.56,0.03,0.83c3.56,3.82,7.49,13.36,0.08,15.77c-0.26,0.08-0.41,0.34-0.35,0.61c0.05,0.26,0.29,0.44,0.56,0.42
	c6.99-0.59,15.99,0.25,16.27,9.3c0.18,6.24-2.04,5.17-6.3,7.75C483.46,406.13,483.5,406.29,484.04,406.33z"/>
<path class="st0" d="M130.46,382.53c7.19-3.23,13.41-3.38,21.53-3.37c49.58,0.03,99.16,0.06,148.75,0.09
	c8.17,0.01,16.33-0.06,24.5-0.2c5.55-0.09,12.85,0.26,17.06,3.67c5.33,4.33,6.38,16.36-3.06,16.36
	c-71.17-0.03-142.33-0.05-213.5-0.06c-1.71,0-3.41-0.14-5.1-0.42c-0.32-0.05-0.5-0.24-0.55-0.56
	C119.07,390.88,124.4,385.25,130.46,382.53z"/>
<path class="st0" d="M347.49,404.15c9.31-0.02,15.4,6.47,12.98,15.92c-0.39,1.51-1.68,2.21-3.27,2.21
	c-87.15-0.03-174.3-0.04-261.45-0.01c-0.33,0-0.61-0.24-0.65-0.57c-1.71-14,8.9-17.58,20.39-17.56
	C192.82,404.29,270.16,404.29,347.49,404.15z"/>
<path class="st0" d="M403.99,426.66l114.07-0.15c3.15-0.01,5.71,2.54,5.71,5.69l0.03,9.53c0,3.16-2.56,5.73-5.72,5.73l-114.25-0.07
	c-3.19,0-5.76-2.61-5.7-5.8l0.16-9.31C398.34,429.16,400.87,426.67,403.99,426.66z"/>
<path class="st0" d="M72.32,443.55c-0.69-16.77,15.18-16.45,26.67-16.45c90-0.06,180-0.09,270-0.08c7.28,0,13.89,2.18,15.79,10.03
	c0.71,2.93,0.7,5.84-0.02,8.75c-0.22,0.91-1.04,1.55-1.97,1.55c-94.19,0.2-188.37,0.13-282.55,0.11c-7.83,0-15.67,0.14-23.5,0.41
	C73.91,447.97,72.44,446.53,72.32,443.55z"/>
<path class="st0" d="M16.46,445.27l46.23,0.06c0.49,0,0.71,0.24,0.68,0.73l-0.16,2.72c-0.02,0.42-0.24,0.63-0.66,0.64l-53.57,0.12
	l-8.52-0.02c-0.26,0-0.47-0.21-0.46-0.47l0.13-3.08c0.01-0.33,0.19-0.5,0.52-0.51L16.46,445.27z"/>
<path class="st0" d="M599.98,448.35c0.15,0.75-0.59,1.11-2.2,1.1l-64.9-0.12c-0.18,0-0.27-0.09-0.26-0.28l0.12-3.36
	c0.01-0.22,0.12-0.33,0.35-0.33l66.13-0.1c0.43,0,0.77,0.34,0.77,0.77L599.98,448.35z"/>
</svg>
