<svg xmlns="http://www.w3.org/2000/svg" version="1.1" xmlns:xlink="http://www.w3.org/1999/xlink" xmlns:svgjs="http://svgjs.dev/svgjs" width="2000" height="2250" viewBox="0 0 2000 2250"><g transform="matrix(1,0,0,1,0,0)"><svg viewBox="0 0 320 360" data-background-color="#ffffff" preserveAspectRatio="xMidYMid meet" height="2250" width="2000" xmlns="http://www.w3.org/2000/svg" xmlns:xlink="http://www.w3.org/1999/xlink"><g id="tight-bounds" transform="matrix(1,0,0,1,0,0)"><svg viewBox="0 0 320 360" height="360" width="320"><g><svg></svg></g><g><svg viewBox="0 0 320 360" height="360" width="320"><g><path d="M297.491 100.645c-12.426-21.51-112.674-79.355-137.491-79.355-24.817 0-125.028 57.845-137.491 79.355-11.591 20.02-11.591 138.726 0 158.746 12.463 21.474 112.674 79.319 137.491 79.319 24.817 0 125.064-57.845 137.491-79.355 11.591-20.02 11.591-138.69 0-158.71zM309.481 93.705c-14.461-24.998-119.469-86.295-149.481-86.295-30.012 0-135.02 61.297-149.481 86.295-14.025 24.199-14.025 148.391 0 172.59 14.461 24.998 119.469 86.295 149.481 86.295 30.012 0 135.02-61.297 149.481-86.259 14.025-24.235 14.025-148.427 0-172.626zM300.906 261.353c-12.753 22.055-115.472 81.317-140.906 81.318-25.434 0-128.153-59.298-140.906-81.354-11.881-20.529-11.881-142.178 0-162.707 12.753-22.019 115.472-81.281 140.906-81.281 25.434 0 128.153 59.298 140.906 81.318 11.881 20.529 11.881 142.178 0 162.706z" fill="#1ebbd7" fill-rule="nonzero" stroke="none" stroke-width="1" stroke-linecap="butt" stroke-linejoin="miter" stroke-miterlimit="10" stroke-dasharray="" stroke-dashoffset="0" font-family="none" font-weight="none" font-size="none" text-anchor="none" style="mix-blend-mode: normal" data-fill-palette-color="tertiary"></path></g><g transform="matrix(1,0,0,1,48,131.50016915969735)"><svg viewBox="0 0 224 96.99966168060527" height="96.99966168060527" width="224"><g><svg viewBox="0 0 224 96.99966168060527" height="96.99966168060527" width="224"><g><svg viewBox="0 0 224 96.99966168060527" height="96.99966168060527" width="224"><g id="textblocktransform"><svg viewBox="0 0 224 96.99966168060527" height="96.99966168060527" width="224" id="textblock"><g><svg viewBox="0 0 224 96.99966168060527" height="96.99966168060527" width="224"><g transform="matrix(1,0,0,1,0,0)"><svg width="224" viewBox="3.0299999999999994 -35.51044921875 83.12 36.00044921875" height="96.99966168060527" data-palette-color="#ffffff"><path d="M38.04-31.81L38.04 0 31.69 0 31.69-8.59 9.38-8.59 9.38 0 3.03 0 3.03-17.5Q3.03-21.34 4.35-24.56 5.66-27.78 8.01-30.1 10.35-32.42 13.55-33.72 16.75-35.01 20.53-35.01L20.53-35.01 34.84-35.01Q35.5-35.01 36.08-34.77 36.67-34.52 37.11-34.08 37.55-33.64 37.79-33.06 38.04-32.47 38.04-31.81L38.04-31.81ZM9.38-17.5L9.38-14.94 31.69-14.94 31.69-28.66 20.53-28.66Q20.24-28.66 19.3-28.58 18.36-28.49 17.13-28.15 15.89-27.81 14.53-27.1 13.16-26.39 12.01-25.15 10.86-23.9 10.12-22.03 9.38-20.17 9.38-17.5L9.38-17.5ZM86.15-32.3L86.15 0 79.76 0 79.76-20.85 68.5-1.05Q68.09-0.29 67.34 0.1 66.6 0.49 65.74 0.49L65.74 0.49Q64.91 0.49 64.19 0.1 63.47-0.29 63.06-1.05L63.06-1.05 51.76-20.85 51.76 0 45.41 0 45.41-32.3Q45.41-33.4 46.05-34.25 46.7-35.11 47.75-35.4L47.75-35.4Q48.26-35.52 48.78-35.49 49.29-35.45 49.77-35.27 50.24-35.08 50.63-34.75 51.02-34.42 51.29-33.96L51.29-33.96 65.74-8.84 80.2-33.96Q80.76-34.89 81.75-35.28 82.74-35.67 83.81-35.4L83.81-35.4Q84.84-35.11 85.5-34.25 86.15-33.4 86.15-32.3L86.15-32.3Z" opacity="1" transform="matrix(1,0,0,1,0,0)" fill="#ffffff" class="undefined-text-0" data-fill-palette-color="quaternary" id="text-0"></path></svg></g></svg></g></svg></g></svg></g><g></g></svg></g></svg></g></svg></g><defs></defs></svg><rect width="320" height="360" fill="none" stroke="none" visibility="hidden"></rect></g></svg></g></svg>